<svg width="1497" height="1078" viewBox="0 0 1497 1078" fill="none" xmlns="http://www.w3.org/2000/svg">
<path d="M209 540.5C209 835.696 448.304 1075 743.5 1075C879.515 1075 1003.66 1023.35 1098 938.762M1277.99 536.5C1278 537.832 1277.99 535.166 1277.99 536.5ZM1277.99 536.5H1153L1273.77 472.899L1472.98 372.5L1251.47 373.727C1148.45 376.845 1134.53 366.865 1230.31 319.489L1420.06 229.5L1180.35 232.437L1009.5 231.5L1103.87 145.747M1277.99 536.5H1497M1277.99 536.5C1277.99 593.383 1269.1 648.34 1252.64 700M0 541H334.148L212.663 477.596L21 371.5L235.562 373.636C303.513 371.809 334.148 363 255.858 321.328C177.568 279.655 65 231.5 65 231.5H307.317H480L385.674 143.441M231.5 2.5L385.674 143.441M1261.5 2.5L1103.87 145.747M385.674 143.441C480.414 58.0079 605.883 6 743.5 6C882.35 6 1008.83 58.9444 1103.87 145.747M1230 761.5C1219.94 782.617 1204.32 809.488 1191.71 829M1098 938.762C1115.95 922.664 1132.83 905.374 1148.5 887.02L1098 938.762Z" stroke="black" stroke-width="6"/>
</svg>
